PathFileType	4	(X/Y/Z)	C:\Users\Basilio\Documents\Thesis Gigler\squatting_fais\c3dfiles\076\SLS_back_pre3\markers_experimental.trc
DataRate	CameraRate	NumFrames	NumMarkers	Units	OrigDataRate	OrigDataStartFrame	OrigNumFrames
200.000000	200.000000	4	61	mm	200.000000	886	1772
Frame#	Time	FHD			LBHD			RBHD			C7			T10			CLAV			LSHO			LUUPA			LMUPA			LDUPA			LLEP			LMEP			LRAD			LUL			LRFIN			RSHO			RUPA1			RMUPA			RDUPA			RLEP			RMEP			RRAD			RUL			RUFIN			LASI			RASI			USACR			LSACR			RSACR			LTHI1			LTHI2			LTHI3			LTHI4			LLFC			LMFC			LTIB1			LTIB2			LTIB3			LTIB4			LLMAL			LMMAL			LHEE			LMT1			LMT2			LMT5			RTHI			RTHI2			RTHI3			RTHI4			RLFC			RMFC			RTIB1			RTIB2			RTIB3			RTIB4			RLMAL			RMMAL			RHEE			RMT1			RMT2			RMT5			
		X1	Y1	Z1	X2	Y2	Z2	X3	Y3	Z3	X4	Y4	Z4	X5	Y5	Z5	X6	Y6	Z6	X7	Y7	Z7	X8	Y8	Z8	X9	Y9	Z9	X10	Y10	Z10	X11	Y11	Z11	X12	Y12	Z12	X13	Y13	Z13	X14	Y14	Z14	X15	Y15	Z15	X16	Y16	Z16	X17	Y17	Z17	X18	Y18	Z18	X19	Y19	Z19	X20	Y20	Z20	X21	Y21	Z21	X22	Y22	Z22	X23	Y23	Z23	X24	Y24	Z24	X25	Y25	Z25	X26	Y26	Z26	X27	Y27	Z27	X28	Y28	Z28	X29	Y29	Z29	X30	Y30	Z30	X31	Y31	Z31	X32	Y32	Z32	X33	Y33	Z33	X34	Y34	Z34	X35	Y35	Z35	X36	Y36	Z36	X37	Y37	Z37	X38	Y38	Z38	X39	Y39	Z39	X40	Y40	Z40	X41	Y41	Z41	X42	Y42	Z42	X43	Y43	Z43	X44	Y44	Z44	X45	Y45	Z45	X46	Y46	Z46	X47	Y47	Z47	X48	Y48	Z48	X49	Y49	Z49	X50	Y50	Z50	X51	Y51	Z51	X52	Y52	Z52	X53	Y53	Z53	X54	Y54	Z54	X55	Y55	Z55	X56	Y56	Z56	X57	Y57	Z57	X58	Y58	Z58	X59	Y59	Z59	X60	Y60	Z60	X61	Y61	Z61	

887	4.43	-120.2039337158203	1424.541259765625	-985.2075805664065	-265.9898071289063	1359.414672851563	-1075.187744140625	-246.7593536376954	1366.054931640625	-924.5002441406252	-317.6146545410157	1267.090454101563	-992.882263183594	-471.0302124023439	998.041198730469	-1012.95263671875	-213.4057312011719	1159.357055664063	-1004.484252929688	-267.6490783691407	1226.360595703125	-1149.066772460938	-149.8173217773438	1191.081176757813	-1261.157836914063	-109.4198684692383	1201.325561523438	-1233.832397460938	-89.7822952270508	1186.652465820313	-1290.372314453125	-44.10960769653321	1169.595458984375	-1316.665161132813	-26.97078895568848	1101.365844726563	-1277.505981445313	206.8414611816407	1202.820068359375	-1294.24365234375	197.617172241211	1209.971557617188	-1359.201171875	285.2465209960938	1232.028198242188	-1302.9306640625	-257.8460083007813	1208.457641601563	-856.3656005859377	-141.5810241699219	1134.65234375	-760.9834594726564	-106.8046112060547	1164.2412109375	-779.2400512695315	-73.14390563964845	1120.2001953125	-752.0128784179689	-4.459289073944093	1117.7607421875	-751.7442626953126	-3.882169961929322	1066.845458984375	-810.0802001953127	238.1582489013672	1133.326538085938	-821.452575683594	233.1989135742188	1129.93017578125	-753.9102783203126	314.1893920898438	1151.775634765625	-809.644226074219	-377.5361328125001	790.7854003906252	-1115.483520507813	-395.9938049316407	770.8300781250002	-901.8764648437502	-522.5116577148439	896.6414184570315	-1014.284057617188	-540.6198730468751	874.5901489257815	-1045.111206054688	-543.9017333984376	869.684509277344	-987.6225585937502	-404.8521118164064	674.3262939453126	-1187.122192382813	-331.1695251464844	633.3532714843751	-1173.267822265625	-298.2664184570313	663.2100830078126	-1151.611206054688	-322.1851806640626	573.7409057617189	-1161.9111328125	-231.1002349853516	451.6911010742189	-1114.030639648438	-232.9807891845704	467.4054260253907	-1003.094299316406	-236.7346954345704	322.1656188964844	-1017.768859863281	-263.7033996582032	262.4466247558594	-1077.95068359375	-241.5823059082032	266.1055297851563	-1035.930053710938	-290.5974426269532	208.0843963623047	-999.803161621094	-380.5013427734376	109.6335525512696	-1050.098022460938	-355.8559875488282	118.7583618164063	-967.018249511719	-441.4389038085939	94.2707977294922	-1004.177673339844	-241.0332946777344	51.31730270385744	-986.2177734375002	-233.5557250976563	56.2314796447754	-1025.416381835938	-256.8586120605469	51.10265731811525	-1075.752075195313	-459.5761108398439	536.8125000000001	-850.703063964844	-414.5632324218751	484.9278259277345	-852.9779052734377	-381.6084594726563	489.7445068359376	-862.6079101562502	-437.6463317871095	406.6032714843751	-874.2082519531252	-437.4205322265626	366.5125427246094	-885.9764404296877	-422.1600341796876	362.9999694824219	-1000.9970703125	-537.6199340820314	295.3914794921876	-923.2963867187502	-627.3977050781251	353.8034667968751	-905.0014648437502	-623.2475585937501	309.8589477539063	-916.4340820312502	-662.6863403320314	294.4230041503907	-959.969421386719	-810.5576782226565	335.5599060058594	-941.5921630859377	-780.839538574219	323.2516174316407	-1021.8203125	-822.282897949219	398.4324035644532	-981.5513916015627	-845.1109619140627	203.3088378906251	-1041.505004882813	-853.7122802734377	188.4163818359375	-998.2400512695315	-883.9204711914065	210.6554260253907	-948.1956787109377	
888	4.435	-119.7606811523438	1423.413818359375	-984.9204101562502	-265.6184692382813	1358.351440429688	-1074.984619140625	-246.2911987304688	1365.040771484375	-924.1679687500002	-317.0952453613282	1266.24951171875	-992.5544433593752	-470.8410034179689	997.327575683594	-1013.077514648438	-213.0351104736329	1158.240844726563	-1004.379760742188	-267.7097778320313	1225.6748046875	-1148.8466796875	-149.5193023681641	1190.681762695313	-1260.877807617188	-108.939323425293	1200.657104492188	-1233.43017578125	-89.4099807739258	1186.194946289063	-1290.114624023438	-42.78454208374024	1169.08056640625	-1316.37451171875	-26.29626846313477	1100.921264648438	-1277.314453125	207.1952209472657	1202.663818359375	-1293.775756835938	198.1396179199219	1209.786376953125	-1358.776611328125	285.5572814941407	1231.947631835938	-1302.3466796875	-257.5181579589844	1207.225341796875	-856.078308105469	-141.3304901123047	1133.318359375	-760.9071044921876	-106.5564956665039	1162.757446289063	-779.0194091796877	-72.98769378662111	1118.73486328125	-751.7321777343751	-4.258458137512208	1116.2978515625	-751.3627319335939	-3.731287002563477	1065.458129882813	-809.730407714844	238.4405822753907	1131.854736328125	-820.8723754882815	233.3667144775391	1128.433959960938	-753.4031982421876	314.2315673828126	1149.927001953125	-809.0025634765627	-377.5898742675782	789.9385986328127	-1115.828002929688	-396.0925292968751	770.1020507812502	-902.150817871094	-522.6189575195314	896.004577636719	-1014.519104003906	-540.4291381835939	873.578063964844	-1045.507080078125	-543.8190307617189	869.179626464844	-987.8711547851565	-404.8755493164064	673.6543579101564	-1187.306884765625	-331.3218078613282	632.9434814453126	-1173.603149414063	-298.5882568359376	663.0095825195314	-1151.851806640625	-323.1263427734376	573.6671752929689	-1162.582885742188	-231.0458221435547	451.4729309082032	-1114.200805664063	-232.7017822265626	467.2404785156251	-1003.196960449219	-236.5516662597657	322.0911560058594	-1017.896850585938	-263.4828796386719	262.3636169433594	-1077.986206054688	-241.4811096191407	266.0143737792969	-1035.957885742188	-290.5190429687501	208.0471343994141	-999.7952270507815	-380.4529113769532	109.6426086425782	-1050.07861328125	-355.8401794433594	118.7853012084961	-967.0291137695315	-441.4395751953126	94.2432098388672	-1004.170654296875	-241.0480194091797	51.26575469970705	-986.249450683594	-233.4957885742188	56.21741104125978	-1025.374389648438	-256.8318786621094	51.11287689208986	-1075.753662109375	-459.6998901367189	535.9973754882814	-851.0405883789065	-414.803680419922	484.1686401367189	-853.3703613281252	-381.9227905273438	488.9787902832032	-863.1160278320315	-437.9229736328126	405.8597717285157	-874.6435546875002	-437.7930908203126	365.7453308105469	-886.6008300781252	-422.8446350097657	362.3640747070313	-1001.626525878906	-537.8599853515626	294.7997741699219	-923.6284790039065	-627.7500610351564	353.0133972167969	-905.453552246094	-623.5528564453126	309.2590026855469	-916.670593261719	-663.0939941406251	293.7861328125001	-960.5093383789065	-810.8645629882815	334.8025512695313	-941.966003417969	-781.3259277343752	322.5330200195313	-1022.164916992188	-822.5867309570315	397.6342773437501	-981.829040527344	-845.5366210937502	202.464340209961	-1042.07568359375	-854.0483398437502	187.8947143554688	-998.2163696289065	-884.5068969726565	210.0333862304688	-948.7844848632815	
889	4.44	-119.3162536621094	1422.41796875	-984.6495361328127	-265.5616149902344	1356.485473632813	-1074.265991210938	-245.7915344238282	1363.983276367188	-923.8171997070315	-316.6003112792969	1265.206909179688	-992.2667236328127	-470.8076171875001	996.6445312500002	-1013.211669921875	-212.7053680419922	1157.10009765625	-1004.114135742188	-267.0601501464844	1224.712036132813	-1148.519653320313	-149.2303466796875	1190.127685546875	-1260.649169921875	-108.3658676147461	1199.931884765625	-1233.064331054688	-89.01503753662111	1185.779174804688	-1289.843139648438	-42.32485961914063	1168.77783203125	-1316.124877929688	-25.75978088378907	1100.527465820313	-1277.259643554688	207.5775756835938	1202.387329101563	-1293.351684570313	198.6485595703126	1209.442138671875	-1358.211669921875	285.8817443847657	1231.854614257813	-1301.82275390625	-257.1012573242188	1206.209838867188	-855.8477783203127	-141.1961517333985	1131.968139648438	-760.5220947265626	-106.3531341552735	1161.412719726563	-778.7108154296877	-72.81243133544923	1117.40185546875	-751.3998413085939	-4.047245025634767	1114.817749023438	-751.1269531250001	-3.437723875045777	1063.939575195313	-809.516540527344	238.5844421386719	1130.379516601563	-820.1564941406252	233.5337066650391	1126.835693359375	-752.9550170898439	314.5245056152344	1148.956665039063	-808.6469726562502	-377.7585144042969	789.1839599609377	-1116.463989257813	-396.3225402832032	769.2949218750002	-902.3899536132815	-522.8051147460939	895.4151611328127	-1014.669494628906	-540.5724487304689	872.9793701171877	-1045.5576171875	-544.3322143554689	868.5989379882815	-987.8793945312502	-405.0183715820314	673.1096801757814	-1187.643432617188	-331.3271484375001	632.3987426757814	-1173.712890625	-298.4931030273438	662.7011718750001	-1151.977172851563	-323.1517333984376	573.3625488281251	-1162.863647460938	-230.965805053711	451.1210937500001	-1114.392700195313	-232.4161529541016	467.1002502441407	-1003.298461914063	-236.3115386962891	322.0455932617188	-1017.901550292969	-263.3488159179688	262.1716308593751	-1078.096801757813	-241.3269500732422	265.8602600097657	-1035.999389648438	-290.4805297851563	207.9585418701172	-999.7935791015627	-380.4247741699219	109.6045150756836	-1050.048828125	-355.7972717285157	118.7797470092774	-967.0178833007815	-441.450653076172	94.25845336914064	-1004.164916992188	-241.0391693115235	51.28940582275392	-986.2233886718752	-233.4072723388672	56.17264556884767	-1025.367431640625	-256.8583984375001	51.13135147094728	-1075.755004882813	-459.9265747070314	535.3484497070314	-851.420593261719	-414.9943847656251	483.5314025878907	-853.737243652344	-382.1347351074219	488.223114013672	-863.5927734375002	-438.2414550781251	405.0812072753907	-875.205261230469	-438.1427612304689	365.0068969726563	-887.066101074219	-423.2852783203126	361.6221923828126	-1002.123352050781	-538.3363647460939	294.1072692871094	-924.022644042969	-628.1290283203126	352.3850097656251	-905.914733886719	-623.8912353515626	308.3787841796876	-917.0632934570315	-663.4538574218751	292.9573669433594	-961.0477294921877	-811.2663574218752	333.9030151367188	-942.331970214844	-781.6118164062502	321.7832031250001	-1022.463989257813	-822.850769042969	396.9097900390626	-982.0841064453127	-845.9711914062502	201.6874237060547	-1042.598754882813	-854.6827392578127	187.044906616211	-999.0528564453127	-885.0589599609377	209.3496093750001	-949.252868652344	
890	4.445	-118.8908615112305	1421.327880859375	-984.2615356445315	-265.2796020507813	1355.623413085938	-1073.854614257813	-245.4214324951172	1363.01806640625	-923.5581665039065	-316.1162109375001	1264.22705078125	-992.015808105469	-470.8071899414064	995.8068847656252	-1013.302062988281	-212.4015808105469	1156.147705078125	-1003.956115722656	-266.6325378417969	1223.83349609375	-1148.263671875	-148.8415069580078	1189.610473632813	-1260.341064453125	-108.3187789916992	1199.584106445313	-1232.685424804688	-88.86921691894533	1185.729125976563	-1289.675170898438	-42.74847030639649	1168.610961914063	-1315.96533203125	-25.45534706115723	1100.203002929688	-1277.23046875	208.0089874267579	1202.125854492188	-1292.979370117188	199.141342163086	1209.310546875	-1357.916381835938	286.2021484375001	1231.774169921875	-1301.357543945313	-256.7820129394532	1204.91943359375	-855.741882324219	-140.9742431640625	1130.638793945313	-760.3596801757814	-106.1159973144532	1160.149291992188	-778.3801269531252	-72.65395355224611	1115.928344726563	-751.1509399414064	-3.837374210357667	1113.373779296875	-750.7068481445314	-3.352634668350221	1062.526000976563	-809.092224121094	238.6196594238282	1128.940551757813	-819.7825317382815	233.7614898681641	1125.294921875	-752.4748535156251	314.5458984375001	1147.016845703125	-807.879333496094	-378.0873107910157	788.438903808594	-1116.690795898438	-396.416473388672	768.6425781250002	-902.5823364257815	-522.9843750000001	894.5430297851565	-1014.821166992188	-540.6013793945314	872.4534301757815	-1045.713012695313	-544.0685424804689	867.7747802734377	-988.2683715820315	-405.2574768066407	672.4931030273439	-1187.906982421875	-331.3179016113282	631.8987426757814	-1173.897094726563	-298.8203125000001	662.4171752929689	-1152.2119140625	-323.1436767578126	573.0206909179689	-1163.0576171875	-230.8086853027344	450.8344116210939	-1114.598022460938	-232.1967468261719	466.963592529297	-1003.365356445313	-236.1647033691407	321.9023132324219	-1018.026733398438	-263.2820434570313	262.0089721679688	-1078.131225585938	-241.2262268066407	265.7409057617188	-1036.067749023438	-290.3981933593751	207.8683319091797	-999.8439941406252	-380.5346984863282	109.5970611572266	-1050.05419921875	-355.7401428222657	118.7329483032227	-967.0096435546877	-441.4234313964845	94.25195312500001	-1004.122009277344	-241.0392456054688	51.29023742675783	-986.215270996094	-233.370590209961	56.14832687377931	-1025.356323242188	-256.6779479980469	51.05986404418947	-1075.633666992188	-460.2579345703126	534.6002197265626	-851.8387451171877	-415.4010620117189	482.591278076172	-854.186950683594	-382.4074096679688	487.4752807617189	-864.0181274414065	-438.5145568847657	404.2777099609376	-875.728698730469	-438.388885498047	364.2706909179688	-887.3588867187502	-423.702606201172	361.0580749511719	-1002.763610839844	-538.7548217773439	293.2190856933594	-924.6201782226565	-628.4586791992189	351.6424865722657	-906.3031005859377	-624.2861328125001	307.4682617187501	-917.2351684570315	-663.8717041015626	292.1833496093751	-961.4169921875002	-811.6645507812502	333.1654052734376	-942.6912841796877	-781.8550415039065	320.8926391601563	-1022.771118164063	-823.2149658203127	396.0989074707032	-982.421325683594	-846.3904418945315	201.0672302246094	-1043.09765625	-855.232604980469	186.307357788086	-999.655456542969	-885.4819335937502	208.5840911865235	-949.7121582031252	
